<svg xmlns="http://www.w3.org/2000/svg" viewBox="0 0 24 24" fill="currentColor"><path d="M15.337 23.979l7.216-1.561s-2.604-17.613-2.625-17.73c-.018-.116-.125-.192-.209-.192s-1.733-.125-1.733-.125-1.146-1.146-1.272-1.272a.572.572 0 0 0-.239-.137l-.896 20.905v.112zm-3.161-18.66c0-.106-.006-.2-.017-.292a4.391 4.391 0 0 0-2.153-.562c-3.528 0-5.266 4.438-5.266 4.438l2.39-.987s.591-1.596 1.605-1.596c.238 0 .442.065.61.178 0 0-.007-.003-.01-.005-.176-.534-.613-1.176-1.435-1.176-1.724 0-3.4 1.87-4.043 4.562-.263 1.104-.17 2.132.196 2.866.538 1.082 1.566 1.713 2.834 1.713 2.382 0 3.971-1.904 4.557-3.542.116-.326.21-.663.282-1.001.152-.721.188-1.407.112-2.017a4.455 4.455 0 0 0-.115-.653c-.22-.875-.659-1.548-1.163-1.936 0 .003.003.006.003.009.505.334.927.844 1.163 1.534.081.235.14.484.178.74.111.75.06 1.559-.144 2.386-.08.372-.184.742-.318 1.101-.639 1.703-2.329 3.684-4.823 3.684-1.368 0-2.487-.684-3.065-1.85-.403-.814-.497-1.932-.213-3.122.686-2.875 2.456-4.892 4.37-4.892.916 0 1.394.69 1.565 1.263zM9.614 2.106a.651.651 0 0 1 .238.03l1.028.327c.277-.854.775-1.638 1.612-1.638h.078c.242-.31.539-.476.865-.476 2.133 0 3.16 2.672 3.16 2.672l-1.37.467s-.454-1.378-1.294-1.378a.437.437 0 0 0-.135.021c-.158.047-.289.155-.379.34-.192.397-.282 1.006-.282 1.006l-2.363.774S9.93 3.367 9.606 2.614c-.027-.06-.017-.172.008-.508z"/></svg>